<?xml version="1.0" encoding="UTF-8"?>
<svg id="LOGO_VETTORIALE" data-name="LOGO VETTORIALE" xmlns="http://www.w3.org/2000/svg" viewBox="0 0 841.89 595.28">
  <defs>
    <style>
      .cls-1 {
        fill: #fff;
      }
    </style>
  </defs>
  <path class="cls-1" d="M225.06,294.32h26.04s4.22,15.83,18.38,15.83,19.28-3.62,19.28-12.51c0-22.96-62.32-5.48-62.32-49.94,0-21.66,16.89-36.68,42.5-35.24,42.33,2.37,44.23,34.55,44.08,35.52h-26.27c.15-.81-2.54-13.72-17.9-13.72-13.27,0-15.71,5.81-16.21,11.74-1.79,21,62.55,7.66,62.55,51.64,0,21.62-17.73,34.21-44.13,34.21-45.99,0-46-37.53-46-37.53Z"/>
  <path class="cls-1" d="M329.82,288.44c0-29.42,18.74-43.97,45.15-43.97s41.89,15.68,41.89,41.71c0,2.59-.16,5.5-.49,8.25h-63.05c2.13,12.66,10.21,17.43,22.47,17.94,7.33.31,13.94-2.08,17.36-7.57l20.61.09c-.78,15.23-18.74,26.98-38.79,26.98s-45.15-15.12-45.15-43.41ZM394.36,279.39c-1.79-12.29-10.59-18.27-20.54-18.27s-18.91,6.47-21.03,18.27h41.56Z"/>
  <path class="cls-1" d="M432.22,330.15v-84.6h21.85v14.38s1.37-.17,1.37-.17c8.17-16.34,16.42-14.21,32.34-14.21v22.64c-13.28-5.45-30.89,2.98-31.49,16.6l-.53,45.36h-23.55Z"/>
  <path class="cls-1" d="M533.87,330.15l-34.35-84.6h25.67l21.95,61.02h.27l21.31-61.02h26.04l-36.26,84.6h-24.64Z"/>
  <g>
    <path class="cls-1" d="M623.39,240.13c7.57,0,13.05-5.65,13.05-13.47s-5.48-13.47-13.05-13.47-13.05,5.65-13.05,13.47,5.48,13.47,13.05,13.47Z"/>
    <rect class="cls-1" x="611.16" y="246.06" width="24.32" height="84.09"/>
  </g>
  <path class="cls-1" d="M651.04,288.44c0-29.75,19.07-43.97,45.15-43.97,19.98,0,39.64,7.98,40.59,31.73l-23.54-.13c-3.83-10.72-9.18-12.51-17.49-12.51-12.88,0-21.05,7.43-21.56,24.89-.4,13.67,9.33,23.01,22.2,22.73,8.87-.19,13.47-1.85,17.23-11.74h23.16c-1.96,22.15-20.7,32.42-40.59,32.42-21.64,0-45.15-13.66-45.15-43.41Z"/>
  <path class="cls-1" d="M746.85,288.53c0-29.42,19.41-44.07,45.81-44.07s40.83,16.92,41.89,41.71c.11,2.58-.16,5.5-.49,8.25h-64.06c1.47,13.9,13.36,17.86,22.49,17.86,7.33,0,14.08-2.25,17.5-7.74l21.96.09c-3.66,16.34-19.19,27.23-39.24,27.23-25.11,0-45.87-15.03-45.87-43.32ZM810,279.39c-2.04-10.77-8.78-17.32-18.72-17.32s-18.66,5.52-20.78,17.32h39.51Z"/>
  <path class="cls-1" d="M21.7,216.94h47.7c22.99.53,34.22,11.51,35.58,30.15.81,11.05-1.96,17.53-10.47,23.4,10.64,4.68,16.26,13.2,16.26,25.18,0,20.51-14.57,33.53-40.73,33.53H21.7v-112.25ZM65.25,262.14c10.05,0,13.26-4.46,13.26-12.25s-6.13-10.78-13.53-10.78l-17.19.06.09,22.97h17.38ZM67.32,306.57c11.96,0,15.44-4.22,15.44-12.3s-5.96-11.7-15.28-12.3h-19.69v24.6h19.54Z"/>
  <path class="cls-1" d="M121.91,216.94h26.98v91.15h48.76v21.1h-75.75v-112.25Z"/>
  <path class="cls-1" d="M213.47,380.03h-.08c-1.41,2.34-3.43,3.94-7.11,3.94-6.2,0-9.38-4.76-9.38-11.32s3.37-11.17,9.44-11.17c3.56,0,5.6,1.25,7.05,3.55h.08v-11.81h4.42v30.34h-4.42v-3.53ZM213.52,372.53c0-3.01-1.98-7.73-6.12-7.73-3.76,0-5.78,4.45-5.78,7.87,0,5,2.02,7.87,5.95,7.87s5.95-2.93,5.95-8.02Z"/>
  <path class="cls-1" d="M222.86,356.05c0-1.6,1.12-2.76,2.81-2.76s2.85,1.16,2.85,2.76-1.24,2.72-2.85,2.72c-1.69,0-2.81-1.16-2.81-2.72ZM223.06,362.19h4.68v21.78h-4.68v-21.78Z"/>
  <path class="cls-1" d="M269.96,356.05c0-1.6,1.12-2.76,2.81-2.76s2.85,1.16,2.85,2.76-1.24,2.72-2.85,2.72c-1.69,0-2.81-1.16-2.81-2.72ZM270.17,362.19h4.68v21.78h-4.68v-21.78Z"/>
  <path class="cls-1" d="M374.26,356.05c0-1.6,1.12-2.76,2.81-2.76s2.85,1.16,2.85,2.76-1.24,2.72-2.85,2.72c-1.69,0-2.81-1.16-2.81-2.72ZM374.47,361.18h4.68v22.79h-4.68v-22.79Z"/>
  <path class="cls-1" d="M243.38,353.63h12.86c5.58,0,8.72,3.12,8.72,7.5,0,2.54-1.2,4.88-3.64,6.31,3.43,1.27,5.66,4.1,5.66,7.83,0,5.33-3.72,8.69-9.67,8.69h-13.93v-30.34ZM255.25,367.17c3.02,0,4.84-2.59,4.84-5.3,0-2.5-1.61-4.3-4.59-4.3h-7.32v9.6h7.07ZM257.02,380.03c3.14,0,4.34-1.89,4.34-4.67,0-3.24-1.74-5.08-4.55-5.08h-8.64v9.76h8.85Z"/>
  <path class="cls-1" d="M293.03,380.48h-.08c-1.49,2.05-4.01,3.49-7.69,3.49-4.71,0-6.99-2.62-6.99-5.82,0-6.31,6.42-6.94,11.03-6.97,4.09-.03,3.51.51,3.73-2.58.16-2.29-1.53-3.9-4.55-3.9s-4.59,1.23-4.88,4.1h-4.26c.5-4.76,3.06-7.58,9.18-7.58s8.93,2.91,8.93,8.77v13.57h-4.42v-3.08ZM293.07,374.08c-4.88.16-10.38-.4-10.38,3.37,0,1.93,1.65,3.16,3.93,3.16,3.76,0,6.45-2.25,6.45-5.82v-.71Z"/>
  <path class="cls-1" d="M479.02,380.34h-.08c-1.49,2.13-4.01,3.63-7.69,3.63-4.71,0-6.99-2.73-6.99-6.06,0-6.57,6.42-7.22,11.03-7.26,4.09-.03,3.51.53,3.73-2.68.16-2.38-1.53-4.05-4.55-4.05s-4.59,1.28-4.88,4.27h-4.26c.5-4.95,3.06-7.89,9.18-7.89s8.93,3.03,8.93,9.13v14.12h-4.42v-3.2ZM479.06,373.68c-4.88.17-10.38-.42-10.38,3.51,0,2.01,1.65,3.29,3.93,3.29,3.76,0,6.45-2.35,6.45-6.06v-.74Z"/>
  <path class="cls-1" d="M303.66,361.69h4.42v3.5h.08c1.49-2.41,3.55-3.91,7.23-3.91,3.35,0,7.23,2.96,7.23,8.12v14.57h-4.42v-13.37c0-3.62-1.16-5.5-4.3-5.5-3.55,0-5.83,2.37-5.83,6.12v12.74h-4.42v-22.28Z"/>
  <path class="cls-1" d="M346.65,375.11c-.29,5.73-3.8,8.86-9.59,8.86-7.07,0-10.46-4.83-10.46-11.85s3.64-11.89,10.42-11.89c5.79,0,9.34,3.21,9.63,8.94h-4.38c-.29-3.29-2.27-5.18-5.29-5.18-3.8,0-5.91,2.65-5.91,8.09s2.11,8.13,5.91,8.13c3.14,0,5-1.71,5.29-5.09h4.38Z"/>
  <path class="cls-1" d="M350.59,353.63h4.42v11.85h.08c1.49-2.38,3.11-4.46,6.78-4.46,5.29,0,7.68,3.52,7.68,8.6v14.35h-4.42v-13.16c0-3.57-.99-5.03-3.87-5.86-3.4-.98-6.26,2.79-6.26,6.48v12.55h-4.42v-30.34Z"/>
  <path class="cls-1" d="M394.73,352.47h4.79v27.37h14.59v4.13h-19.39v-31.5Z"/>
  <path class="cls-1" d="M416.89,360.29h4.42v13.95c0,3.78,1.08,5.74,4.09,5.74,3.43,0,5.58-2.48,5.58-6.39v-13.3h4.42v23.24h-4.42v-3.74h-.08c-1.41,2.52-3.43,4.17-6.94,4.17-5.13,0-7.07-3.08-7.07-8.47v-15.21Z"/>
  <path class="cls-1" d="M460.5,375.14c-.29,5.72-3.8,8.83-9.59,8.83-7.07,0-10.46-4.82-10.46-11.82s3.64-11.86,10.42-11.86c5.79,0,9.34,3.2,9.63,8.92h-4.38c-.29-3.29-2.27-5.16-5.29-5.16-3.8,0-5.91,2.65-5.91,8.06s2.11,8.11,5.91,8.11c3.14,0,5-1.71,5.29-5.08h4.38Z"/>
  <path class="cls-1" d="M572.01,349.22c3.7-1.86,7.47.05,11.3.18,47.47,45.68,114.38,49.81,160.6.14,4.35-1.19,8.46-1.95,13.62-1.52-22.81,32.93-60.02,48.57-99.72,45.82-33.29-2.31-64.31-17.43-85.81-44.62Z"/>
  <path class="cls-1" d="M702.33,187.82c-41.75-14.97-81.79-3.49-114.26,23.69l-11.53.55c3.47-6,7.85-9.35,12.84-13.13,17.14-13,36.16-23.34,57.75-26.81,42.26-6.81,79.34,10.01,108.66,40-4.42.73-10.1,1.02-13.78-1.67-12.44-9.09-24.6-17.22-39.67-22.62Z"/>
  <path class="cls-1" d="M741.85,191.2c-22.66-17.49-49.21-27.54-77.81-27.38-35.44.2-75.98,20.38-96.88,48.74l-66.06-.2c-1.25,0-.53-3.43.19-4.29.9-1.08,2.72-2.44,4.95-2.4,14.44.27,28.28,1.49,43,.9l-17.91-19.88c5.44-6.92,10.93-12.8,17.3-18.73l26.4,13.12c5.57-3.54,10.16-7.32,15.19-11.41l-7.85-28.06c7.88-4.95,15.84-9.16,24.71-13.22,10.74,9.28,11.54,16.36,19.28,26.47l19.33-4.66,4.12-30.92,29.9.81,3.35,29.37,20.2,4.92,16.01-26.51c9.58,3.87,18.52,8.1,27.67,13.08l-8.94,28.52,16.01,11.95c9.22-5.27,17.6-10.66,27.21-14.31l17.45,19.68-18.9,20.99h45.22c2.04,0,3.26,3.87,1.9,4.59l-59.16-.07c-3.53,0-4.83-1.44-6.63-3.61-5.61-6.75-11.88-11.77-19.25-17.46Z"/>
  <path class="cls-1" d="M720.27,432.47l-17.59-20.78c-5.47.63-10.6,2.2-16.22,3.56l-8.05,29.13-26.9-.29-6.58-29.27-19.44-5.24-16.35,23.57c-9.69-3.58-18.1-8.15-27.2-12.92,1.48-10.01,4.99-18.87,8.29-28.87-4.11-4.53-9.08-7.9-14.01-11.72-9.34,5.15-17.92,10.01-28.29,13.7l-17.09-18.81,15.95-18.35-43.12-1.15c.61-4.84,4.89-7.16,9.69-7.17l45.81-.12c3.51,0,6.42,2.03,8.28,4.61,4.97,6.92,10.3,12.64,16.83,18.23,28.95,24.8,67,34.35,104.76,28.05,30.8-5.14,57.1-22.66,74-48.97,5.45-1.96,11.01-2.05,16.93-1.91l47.59,1.11c1.54.04,1.4,3.16.72,3.75-.81.71-1.83,1.43-3.4,1.43l-44.42.19,18.07,20.45-17.89,18.83c-5.74-.86-24.47-13.89-26.92-12.27-5.53,3.65-10.48,7.32-15.74,11.48l7.08,26.69-24.76,13.07Z"/>
</svg>